<svg xmlns="http://www.w3.org/2000/svg"  viewBox="0 0 100 100" width="100px" height="100px"><path fill="#c7ede6" d="M89.215,56.71C90.35,54.555,91,52.105,91,49.5c0-6.621-4.159-12.257-10.001-14.478 C80.999,35.015,81,35.008,81,35c0-11.598-9.402-21-21-21c-9.784,0-17.981,6.701-20.313,15.757C38.211,29.272,36.638,29,35,29 c-7.692,0-14.023,5.793-14.89,13.252C14.906,43.353,11,47.969,11,53.5C11,59.851,16.149,65,22.5,65 c0.177,0,0.352-0.012,0.526-0.022C23.022,65.153,23,65.324,23,65.5C23,76.822,32.178,86,43.5,86c6.437,0,12.175-2.972,15.934-7.614 C61.612,80.611,64.64,82,68,82c4.65,0,8.674-2.65,10.666-6.518C79.718,75.817,80.837,76,82,76c6.075,0,11-4.925,11-11 C93,61.689,91.53,58.727,89.215,56.71z"/><path fill="#fff" d="M17.5,51h-10C7.224,51,7,50.776,7,50.5S7.224,50,7.5,50h10c0.276,0,0.5,0.224,0.5,0.5 S17.777,51,17.5,51z"/><path fill="#fff" d="M20.5,51h-1c-0.276,0-0.5-0.224-0.5-0.5s0.224-0.5,0.5-0.5h1c0.276,0,0.5,0.224,0.5,0.5 S20.777,51,20.5,51z"/><path fill="#fff" d="M25.491,53H16.5c-0.276,0-0.5-0.224-0.5-0.5s0.224-0.5,0.5-0.5h8.991c0.276,0,0.5,0.224,0.5,0.5 S25.767,53,25.491,53z"/><path fill="#fff" d="M14.5,53h-1c-0.276,0-0.5-0.224-0.5-0.5s0.224-0.5,0.5-0.5h1c0.276,0,0.5,0.224,0.5,0.5 S14.777,53,14.5,53z"/><path fill="#fff" d="M11.5,53h-2C9.224,53,9,52.776,9,52.5S9.224,52,9.5,52h2c0.276,0,0.5,0.224,0.5,0.5 S11.777,53,11.5,53z"/><path fill="#fff" d="M17.5,55h-2c-0.276,0-0.5-0.224-0.5-0.5s0.224-0.5,0.5-0.5h2c0.276,0,0.5,0.224,0.5,0.5 S17.776,55,17.5,55z"/><path fill="#fff" d="M20.5,46c-0.177,0-0.823,0-1,0c-0.276,0-0.5,0.224-0.5,0.5c0,0.276,0.224,0.5,0.5,0.5 c0.177,0,0.823,0,1,0c0.276,0,0.5-0.224,0.5-0.5C21,46.224,20.776,46,20.5,46z"/><path fill="#fff" d="M20.5,48c-0.177,0-4.823,0-5,0c-0.276,0-0.5,0.224-0.5,0.5c0,0.276,0.224,0.5,0.5,0.5 c0.177,0,4.823,0,5,0c0.276,0,0.5-0.224,0.5-0.5C21,48.224,20.776,48,20.5,48z"/><path fill="#fff" d="M25.5,50c-0.177,0-2.823,0-3,0c-0.276,0-0.5,0.224-0.5,0.5c0,0.276,0.224,0.5,0.5,0.5 c0.177,0,2.823,0,3,0c0.276,0,0.5-0.224,0.5-0.5C26,50.224,25.776,50,25.5,50z"/><path fill="#fff" d="M74.5,24h-10c-0.276,0-0.5-0.224-0.5-0.5s0.224-0.5,0.5-0.5h10c0.276,0,0.5,0.224,0.5,0.5 S74.776,24,74.5,24z"/><path fill="#fff" d="M78.5,24h-2c-0.276,0-0.5-0.224-0.5-0.5s0.224-0.5,0.5-0.5h2c0.276,0,0.5,0.224,0.5,0.5 S78.776,24,78.5,24z"/><path fill="#fff" d="M83.5,26h-10c-0.276,0-0.5-0.224-0.5-0.5s0.224-0.5,0.5-0.5h10c0.276,0,0.5,0.224,0.5,0.5 S83.777,26,83.5,26z"/><path fill="#fff" d="M71.5,26h-1c-0.276,0-0.5-0.224-0.5-0.5s0.224-0.5,0.5-0.5h1c0.276,0,0.5,0.224,0.5,0.5 S71.776,26,71.5,26z"/><path fill="#fff" d="M68.47,26H66.5c-0.276,0-0.5-0.224-0.5-0.5s0.224-0.5,0.5-0.5h1.97c0.276,0,0.5,0.224,0.5,0.5 S68.746,26,68.47,26z"/><path fill="#fff" d="M77.5,22h-5c-0.276,0-0.5-0.224-0.5-0.5s0.224-0.5,0.5-0.5h5c0.276,0,0.5,0.224,0.5,0.5 S77.777,22,77.5,22z"/><path fill="#fff" d="M74.5,28h-2c-0.276,0-0.5-0.224-0.5-0.5s0.224-0.5,0.5-0.5h2c0.276,0,0.5,0.224,0.5,0.5 S74.776,28,74.5,28z"/><g><path fill="#fdfcef" d="M35.5,72.5V73h3v-0.5c0,0,4.242,0,5.5,0c2.485,0,4.5-2.015,4.5-4.5c0-2.333-1.782-4.229-4.055-4.455 C44.467,63.364,44.5,63.187,44.5,63c0-2.485-2.015-4.5-4.5-4.5c-1.438,0-2.703,0.686-3.527,1.736 C36.333,57.6,34.171,55.5,31.5,55.5c-2.761,0-5,2.239-5,5c0,0.446,0.077,0.87,0.187,1.282C26.045,61.005,25.086,60.5,24,60.5 c-1.781,0-3.234,1.335-3.455,3.055C20.364,63.533,20.187,63.5,20,63.5c-2.485,0-4.5,2.015-4.5,4.5s2.015,4.5,4.5,4.5s9.5,0,9.5,0 H35.5z"/><path fill="#472b29" d="M31.5,55c-3.033,0-5.5,2.467-5.5,5.5c0,0.016,0,0.031,0,0.047C25.398,60.192,24.71,60,24,60 c-1.831,0-3.411,1.261-3.858,3.005C20.095,63.002,20.048,63,20,63c-2.757,0-5,2.243-5,5s2.243,5,5,5h15.5 c0.276,0,0.5-0.224,0.5-0.5S35.776,72,35.5,72H20c-2.206,0-4-1.794-4-4s1.794-4,4-4c0.117,0,0.23,0.017,0.343,0.032l0.141,0.019 c0.021,0.003,0.041,0.004,0.062,0.004c0.246,0,0.462-0.185,0.495-0.437C21.232,62.125,22.504,61,24,61 c0.885,0,1.723,0.401,2.301,1.1c0.098,0.118,0.241,0.182,0.386,0.182c0.078,0,0.156-0.018,0.228-0.056 c0.209-0.107,0.314-0.346,0.254-0.573C27.054,61.218,27,60.852,27,60.5c0-2.481,2.019-4.5,4.5-4.5c2.381,0,4.347,1.872,4.474,4.263 c0.011,0.208,0.15,0.387,0.349,0.45c0.05,0.016,0.101,0.024,0.152,0.024c0.15,0,0.296-0.069,0.392-0.192 C37.638,59.563,38.779,59,40,59c2.206,0,4,1.794,4,4c0,0.117-0.017,0.23-0.032,0.343l-0.019,0.141 c-0.016,0.134,0.022,0.268,0.106,0.373c0.084,0.105,0.207,0.172,0.34,0.185C46.451,64.247,48,65.949,48,68c0,2.206-1.794,4-4,4 h-5.5c-0.276,0-0.5,0.224-0.5,0.5s0.224,0.5,0.5,0.5H44c2.757,0,5-2.243,5-5c0-2.397-1.689-4.413-4.003-4.877 C44.999,63.082,45,63.041,45,63c0-2.757-2.243-5-5-5c-1.176,0-2.293,0.416-3.183,1.164C36.219,56.76,34.055,55,31.5,55L31.5,55z"/><path fill="#472b29" d="M30,62c-1.403,0-2.609,0.999-2.913,2.341C26.72,64.119,26.301,64,25.875,64 c-1.202,0-2.198,0.897-2.353,2.068C23.319,66.022,23.126,66,22.937,66c-1.529,0-2.811,1.2-2.918,2.732 C20.01,68.87,20.114,68.99,20.251,69c0.006,0,0.012,0,0.018,0c0.13,0,0.24-0.101,0.249-0.232c0.089-1.271,1.151-2.268,2.419-2.268 c0.229,0,0.47,0.042,0.738,0.127c0.022,0.007,0.045,0.01,0.067,0.01c0.055,0,0.11-0.02,0.156-0.054 C23.962,66.537,24,66.455,24,66.375c0-1.034,0.841-1.875,1.875-1.875c0.447,0,0.885,0.168,1.231,0.473 c0.047,0.041,0.106,0.063,0.165,0.063c0.032,0,0.063-0.006,0.093-0.019c0.088-0.035,0.148-0.117,0.155-0.212 C27.623,63.512,28.712,62.5,30,62.5c0.208,0,0.425,0.034,0.682,0.107c0.023,0.007,0.047,0.01,0.07,0.01 c0.109,0,0.207-0.073,0.239-0.182c0.038-0.133-0.039-0.271-0.172-0.309C30.517,62.04,30.256,62,30,62L30,62z"/><path fill="#472b29" d="M43.883,63.5c-1.326,0-2.508,0.897-2.874,2.182c-0.038,0.133,0.039,0.271,0.172,0.309 C41.205,65.997,41.228,66,41.25,66c0.109,0,0.209-0.072,0.24-0.182C41.795,64.748,42.779,64,43.883,64 c0.117,0,0.23,0.014,0.342,0.029c0.012,0.002,0.023,0.003,0.035,0.003c0.121,0,0.229-0.092,0.246-0.217 c0.019-0.137-0.077-0.263-0.214-0.281C44.158,63.516,44.022,63.5,43.883,63.5L43.883,63.5z"/></g><g><path fill="#4caf50" d="M52.286,68.571C40.029,68.571,30,58.543,30,46.286S40.029,24,52.286,24s22.286,10.029,22.286,22.286 S67.39,71.667,52.286,76V68.571z"/><path fill="#472b29" d="M52.286,76.7c-0.15,0-0.299-0.049-0.421-0.141c-0.176-0.132-0.279-0.339-0.279-0.559v-6.739 C39.234,68.889,29.3,58.726,29.3,46.286C29.3,33.611,39.611,23.3,52.286,23.3c12.674,0,22.985,10.312,22.985,22.986 c0,11.001-5.97,25.561-22.792,30.387C52.416,76.691,52.351,76.7,52.286,76.7z M52.286,24.7C40.384,24.7,30.7,34.383,30.7,46.286 s9.684,21.585,21.586,21.585c0.387,0,0.7,0.313,0.7,0.7v6.487c15.394-4.863,20.885-18.455,20.885-28.772 C73.871,34.383,64.188,24.7,52.286,24.7z"/></g><g><path fill="#fff" d="M50,40.228v8.595c0,4.052-3.375,7.367-7.5,7.367v-3.684c2.125,0,3.75-1.596,3.75-3.684h-5 c-0.625,0-1.25-0.614-1.25-1.228v-7.367C40,39.614,40.625,39,41.25,39h7.5C49.375,39,50,39.614,50,40.228z"/><path fill="#472b29" d="M42.5,56.69c-0.276,0-0.5-0.224-0.5-0.5v-3.684c0-0.276,0.224-0.5,0.5-0.5 c1.679,0,2.982-1.123,3.214-2.684H41.25c-0.899,0-1.75-0.84-1.75-1.728v-7.367c0-0.888,0.851-1.728,1.75-1.728h7.5 c0.899,0,1.75,0.84,1.75,1.728v8.595C50.5,53.161,46.911,56.69,42.5,56.69z M43,52.979v2.693c3.627-0.252,6.5-3.228,6.5-6.85 v-8.595c0-0.34-0.399-0.728-0.75-0.728h-7.5c-0.351,0-0.75,0.388-0.75,0.728v7.367c0,0.34,0.399,0.728,0.75,0.728h5 c0.276,0,0.5,0.224,0.5,0.5C46.75,51.002,45.14,52.743,43,52.979z"/></g><g><path fill="#fff" d="M63.75,39h-7.5C55.625,39,55,39.614,55,40.228v7.367c0,0.614,0.625,1.228,1.25,1.228h5 c0,2.087-1.625,3.684-3.75,3.684v3.684c4.125,0,7.5-3.315,7.5-7.367v-8.595C65,39.614,64.375,39,63.75,39z"/><path fill="#472b29" d="M57.5,56.69c-0.276,0-0.5-0.224-0.5-0.5v-3.684c0-0.276,0.224-0.5,0.5-0.5 c1.679,0,2.982-1.123,3.214-2.684H56.25c-0.899,0-1.75-0.84-1.75-1.728v-7.367c0-0.888,0.851-1.728,1.75-1.728h7.5 c0.899,0,1.75,0.84,1.75,1.728v8.595C65.5,53.161,61.911,56.69,57.5,56.69z M58,52.979v2.693c3.627-0.252,6.5-3.228,6.5-6.85 v-8.595c0-0.34-0.399-0.728-0.75-0.728h-7.5c-0.351,0-0.75,0.388-0.75,0.728v7.367c0,0.34,0.399,0.728,0.75,0.728h5 c0.276,0,0.5,0.224,0.5,0.5C61.75,51.002,60.14,52.743,58,52.979z"/></g><path fill="#472b29" d="M48.125,28.167c-0.115,0-0.219-0.08-0.244-0.197c-0.029-0.135,0.056-0.268,0.19-0.297	c2.231-0.488,4.584-0.555,6.843-0.192c0.137,0.022,0.229,0.15,0.208,0.287s-0.151,0.229-0.286,0.208	c-2.197-0.352-4.487-0.288-6.657,0.187C48.16,28.166,48.143,28.167,48.125,28.167z"/><path fill="#472b29" d="M42.875,30.218c-0.086,0-0.169-0.044-0.216-0.124c-0.069-0.119-0.029-0.272,0.09-0.342	c0.967-0.564,1.99-1.043,3.041-1.422c0.13-0.044,0.273,0.021,0.32,0.15c0.047,0.13-0.021,0.273-0.15,0.32	c-1.022,0.368-2.018,0.833-2.959,1.383C42.961,30.208,42.918,30.218,42.875,30.218z"/><path fill="#472b29" d="M38.5,33.759c-0.061,0-0.12-0.021-0.169-0.065c-0.102-0.093-0.108-0.251-0.016-0.353	c0.622-0.683,1.301-1.325,2.016-1.91c0.108-0.087,0.266-0.072,0.352,0.035c0.088,0.107,0.072,0.264-0.035,0.352	c-0.696,0.569-1.356,1.195-1.963,1.86C38.636,33.732,38.567,33.759,38.5,33.759z"/><path fill="#472b29" d="M34.147,51.75c-0.11,0-0.212-0.074-0.241-0.186c-0.436-1.644-0.656-3.347-0.656-5.064	c0-4.908,1.799-9.581,5.065-13.159c0.094-0.103,0.251-0.108,0.354-0.016c0.102,0.093,0.108,0.251,0.016,0.353	c-3.182,3.486-4.935,8.04-4.935,12.822c0,1.674,0.215,3.334,0.639,4.936c0.036,0.133-0.044,0.271-0.177,0.306	C34.19,51.748,34.169,51.75,34.147,51.75z"/><path fill="#472b29" d="M38.175,59.375c-0.07,0-0.14-0.029-0.189-0.086c-1.009-1.165-1.878-2.452-2.583-3.826	c-0.063-0.123-0.015-0.273,0.108-0.336c0.119-0.064,0.272-0.016,0.337,0.108c0.687,1.338,1.533,2.592,2.517,3.727	c0.09,0.104,0.078,0.262-0.025,0.353C38.291,59.355,38.232,59.375,38.175,59.375z"/><path fill="#472b29" d="M42.75,63.208c-0.044,0-0.088-0.011-0.128-0.035c-0.935-0.555-1.83-1.199-2.66-1.914	c-0.104-0.09-0.116-0.248-0.026-0.353c0.091-0.104,0.249-0.116,0.353-0.026c0.809,0.696,1.68,1.323,2.59,1.863	c0.118,0.07,0.157,0.224,0.087,0.342C42.918,63.165,42.835,63.208,42.75,63.208z"/><path fill="#472b29" d="M47,65.048c-0.022,0-0.046-0.003-0.069-0.01c-0.86-0.247-1.711-0.562-2.53-0.935	c-0.126-0.057-0.182-0.206-0.124-0.331c0.058-0.126,0.209-0.181,0.331-0.124c0.797,0.363,1.625,0.669,2.462,0.91	c0.133,0.038,0.209,0.177,0.171,0.309C47.209,64.977,47.108,65.048,47,65.048z"/><g><path fill="#fdfcef" d="M84.5,59.5c0,0,1.567,0,3.5,0s3.5-1.567,3.5-3.5c0-1.781-1.335-3.234-3.055-3.455 C88.473,52.366,88.5,52.187,88.5,52c0-1.933-1.567-3.5-3.5-3.5c-1.032,0-1.95,0.455-2.59,1.165 c-0.384-1.808-1.987-3.165-3.91-3.165c-2.209,0-4,1.791-4,4c0,0.191,0.03,0.374,0.056,0.558C74.128,50.714,73.592,50.5,73,50.5 c-1.228,0-2.245,0.887-2.455,2.055C70.366,52.527,70.187,52.5,70,52.5c-1.933,0-3.5,1.567-3.5,3.5s1.567,3.5,3.5,3.5s7.5,0,7.5,0 V60h7V59.5z"/><path fill="#472b29" d="M86.25,55C86.112,55,86,54.888,86,54.75c0-1.223,0.995-2.218,2.218-2.218 c0.034,0.009,0.737-0.001,1.244,0.136c0.133,0.036,0.212,0.173,0.176,0.306c-0.036,0.134-0.173,0.213-0.306,0.176 c-0.444-0.12-1.1-0.12-1.113-0.118c-0.948,0-1.719,0.771-1.719,1.718C86.5,54.888,86.388,55,86.25,55z"/><circle cx="79.5" cy="59.5" r=".5" fill="#472b29"/><path fill="#472b29" d="M88,60h-3.5c-0.276,0-0.5-0.224-0.5-0.5s0.224-0.5,0.5-0.5H88c1.654,0,3-1.346,3-3 c0-1.496-1.125-2.768-2.618-2.959c-0.134-0.018-0.255-0.088-0.336-0.196s-0.115-0.244-0.094-0.377C87.975,52.314,88,52.16,88,52 c0-1.654-1.346-3-3-3c-0.85,0-1.638,0.355-2.219,1c-0.125,0.139-0.321,0.198-0.5,0.148c-0.182-0.049-0.321-0.195-0.36-0.379 C81.58,48.165,80.141,47,78.5,47c-1.93,0-3.5,1.57-3.5,3.5c0,0.143,0.021,0.28,0.041,0.418c0.029,0.203-0.063,0.438-0.242,0.54 c-0.179,0.102-0.396,0.118-0.556-0.01C73.878,51.155,73.449,51,73,51c-0.966,0-1.792,0.691-1.963,1.644 c-0.048,0.267-0.296,0.446-0.569,0.405C70.314,53.025,70.16,53,70,53c-1.654,0-3,1.346-3,3s1.346,3,3,3h7.5 c0.276,0,0.5,0.224,0.5,0.5S77.776,60,77.5,60H70c-2.206,0-4-1.794-4-4s1.794-4,4-4c0.059,0,0.116,0.002,0.174,0.006 C70.588,50.82,71.711,50,73,50c0.349,0,0.689,0.061,1.011,0.18C74.176,47.847,76.126,46,78.5,46c1.831,0,3.466,1.127,4.153,2.774 C83.333,48.276,84.155,48,85,48c2.206,0,4,1.794,4,4c0,0.048-0.001,0.095-0.004,0.142C90.739,52.59,92,54.169,92,56 C92,58.206,90.206,60,88,60z"/><path fill="#472b29" d="M82.5,59c-0.159,0-0.841,0-1,0c-0.276,0-0.5,0.224-0.5,0.5c0,0.276,0.224,0.5,0.5,0.5 c0.159,0,0.841,0,1,0c0.276,0,0.5-0.224,0.5-0.5C83,59.224,82.776,59,82.5,59z"/></g></svg>