<svg xmlns="http://www.w3.org/2000/svg" xmlns:xlink="http://www.w3.org/1999/xlink" viewBox="0,0,256,256" width="50px" height="50px" fill-rule="nonzero"><g fill="#1fb854" fill-rule="nonzero" stroke="none" stroke-width="1" stroke-linecap="butt" stroke-linejoin="miter" stroke-miterlimit="10" stroke-dasharray="" stroke-dashoffset="0" font-family="none" font-weight="none" font-size="none" text-anchor="none" style="mix-blend-mode: normal"><g transform="scale(5.12,5.12)"><path d="M24.5,2c-10.752,0 -19.5,8.748 -19.5,19.5c0,10.585 8.479,19.22814 19,19.49414v6.80078l1.30469,-0.41602c0.176,-0.057 17.66936,-5.86613 18.69336,-25.82812c0.252,-4.923 -1.53702,-9.66747 -5.04102,-13.35547c-3.741,-3.937 -9.01103,-6.19531 -14.45703,-6.19531zM24.5,4c4.9,0 9.64281,2.03027 13.00781,5.57227c3.122,3.286 4.71914,7.504 4.49414,11.875c-0.802,15.644 -12.08595,21.83548 -16.00195,23.52148v-6.02344l-1.0293,0.0293c-0.086,0.003 -0.17086,0.00767 -0.25586,0.01367c-0.071,0.005 -0.14284,0.01172 -0.21484,0.01172c-9.649,0 -17.5,-7.851 -17.5,-17.5c0,-9.649 7.851,-17.5 17.5,-17.5zM13,16v9h4v5h1c2.757,0 5,-2.243 5,-5v-9zM26,16v9h4v5h1c2.757,0 5,-2.243 5,-5v-9zM15,18h6v7c0,1.304 -0.836,2.41512 -2,2.82813v-4.82812h-4zM28,18h6v7c0,1.304 -0.836,2.41512 -2,2.82813v-4.82812h-4z"></path></g></g></svg>